<?xml version="1.0" encoding="UTF-8"?>
<svg width="100px" height="100px" viewBox="0 0 100 100" version="1.1" xmlns="http://www.w3.org/2000/svg" xmlns:xlink="http://www.w3.org/1999/xlink">
    <title>Group 3</title>
    <g id="Page-2" stroke="none" stroke-width="1" fill="none" fill-rule="evenodd">
        <g id="iOS-Homescreen" transform="translate(-270.000000, -435.000000)">
            <g id="Group-3" transform="translate(270.000000, 435.000000)">
                <circle id="Oval-Copy-2" fill="#C2BAFF" cx="50" cy="50" r="50"></circle>
                <g id="assignment_FILL0_wght400_GRAD0_opsz24" transform="translate(24.000000, 21.000000)" fill="#000000" fill-rule="nonzero">
                    <path d="M5.88888889,58 C4.26944444,58 2.88310185,57.4320833 1.72986111,56.29625 C0.57662037,55.1604167 0,53.795 0,52.2 L0,11.6 C0,10.005 0.57662037,8.63958333 1.72986111,7.50375 C2.88310185,6.36791667 4.26944444,5.8 5.88888889,5.8 L18.2555556,5.8 C18.8935185,4.06 19.9608796,2.65833333 21.4576389,1.595 C22.9543981,0.531666667 24.6351852,0 26.5,0 C28.3648148,0 30.0456019,0.531666667 31.5423611,1.595 C33.0391204,2.65833333 34.1064815,4.06 34.7444444,5.8 L47.1111111,5.8 C48.7305556,5.8 50.1168981,6.36791667 51.2701389,7.50375 C52.4233796,8.63958333 53,10.005 53,11.6 L53,52.2 C53,53.795 52.4233796,55.1604167 51.2701389,56.29625 C50.1168981,57.4320833 48.7305556,58 47.1111111,58 L5.88888889,58 Z M5.88888889,52.2 L47.1111111,52.2 L47.1111111,11.6 L5.88888889,11.6 L5.88888889,52.2 Z M11.7777778,46.4 L32.3888889,46.4 L32.3888889,40.6 L11.7777778,40.6 L11.7777778,46.4 Z M11.7777778,34.8 L41.2222222,34.8 L41.2222222,29 L11.7777778,29 L11.7777778,34.8 Z M11.7777778,23.2 L41.2222222,23.2 L41.2222222,17.4 L11.7777778,17.4 L11.7777778,23.2 Z M26.5,9.425 C27.137963,9.425 27.6655093,9.21958333 28.0826389,8.80875 C28.4997685,8.39791667 28.7083333,7.87833333 28.7083333,7.25 C28.7083333,6.62166667 28.4997685,6.10208333 28.0826389,5.69125 C27.6655093,5.28041667 27.137963,5.075 26.5,5.075 C25.862037,5.075 25.3344907,5.28041667 24.9173611,5.69125 C24.5002315,6.10208333 24.2916667,6.62166667 24.2916667,7.25 C24.2916667,7.87833333 24.5002315,8.39791667 24.9173611,8.80875 C25.3344907,9.21958333 25.862037,9.425 26.5,9.425 Z M5.99930556,52.2 L5.99930556,11.6 L5.99930556,52.2 Z" id="Shape"></path>
                </g>
            </g>
        </g>
    </g>
</svg>