<?xml version="1.0" encoding="UTF-8"?>
<svg width="72px" height="72px" viewBox="0 0 72 72" version="1.1" xmlns="http://www.w3.org/2000/svg" xmlns:xlink="http://www.w3.org/1999/xlink">
    <title>Group 3</title>
    <g id="Page-2" stroke="none" stroke-width="1" fill="none" fill-rule="evenodd">
        <g id="iOS-Homescreen" transform="translate(-306.000000, -481.000000)">
            <g id="Group-3" transform="translate(306.000000, 481.000000)">
                <circle id="Oval-Copy-2" fill="#C2BAFF" cx="36" cy="36" r="36"></circle>
                <g id="assignment_FILL0_wght400_GRAD0_opsz24" transform="translate(17.000000, 15.000000)" fill="#000000" fill-rule="nonzero">
                    <path d="M4.22222222,42 C3.06111111,42 2.06712963,41.58875 1.24027778,40.76625 C0.413425926,39.94375 0,38.955 0,37.8 L0,8.4 C0,7.245 0.413425926,6.25625 1.24027778,5.43375 C2.06712963,4.61125 3.06111111,4.2 4.22222222,4.2 L13.0888889,4.2 C13.5462963,2.94 14.3115741,1.925 15.3847222,1.155 C16.4578704,0.385 17.662963,0 19,0 C20.337037,0 21.5421296,0.385 22.6152778,1.155 C23.6884259,1.925 24.4537037,2.94 24.9111111,4.2 L33.7777778,4.2 C34.9388889,4.2 35.9328704,4.61125 36.7597222,5.43375 C37.5865741,6.25625 38,7.245 38,8.4 L38,37.8 C38,38.955 37.5865741,39.94375 36.7597222,40.76625 C35.9328704,41.58875 34.9388889,42 33.7777778,42 L4.22222222,42 Z M4.22222222,37.8 L33.7777778,37.8 L33.7777778,8.4 L4.22222222,8.4 L4.22222222,37.8 Z M8.44444444,33.6 L23.2222222,33.6 L23.2222222,29.4 L8.44444444,29.4 L8.44444444,33.6 Z M8.44444444,25.2 L29.5555556,25.2 L29.5555556,21 L8.44444444,21 L8.44444444,25.2 Z M8.44444444,16.8 L29.5555556,16.8 L29.5555556,12.6 L8.44444444,12.6 L8.44444444,16.8 Z M19,6.825 C19.4574074,6.825 19.8356481,6.67625 20.1347222,6.37875 C20.4337963,6.08125 20.5833333,5.705 20.5833333,5.25 C20.5833333,4.795 20.4337963,4.41875 20.1347222,4.12125 C19.8356481,3.82375 19.4574074,3.675 19,3.675 C18.5425926,3.675 18.1643519,3.82375 17.8652778,4.12125 C17.5662037,4.41875 17.4166667,4.795 17.4166667,5.25 C17.4166667,5.705 17.5662037,6.08125 17.8652778,6.37875 C18.1643519,6.67625 18.5425926,6.825 19,6.825 Z M4.30138889,37.8 L4.30138889,8.4 L4.30138889,37.8 Z" id="Shape"></path>
                </g>
            </g>
        </g>
    </g>
</svg>